<?xml version="1.0" encoding="UTF-8"?>
<svg width="303.97mm" height="45.862mm" version="1.1" viewBox="0 0 303.96823 45.862492" xmlns="http://www.w3.org/2000/svg" xmlns:cc="http://creativecommons.org/ns#" xmlns:dc="http://purl.org/dc/elements/1.1/" xmlns:rdf="http://www.w3.org/1999/02/22-rdf-syntax-ns#">
<metadata>
<rdf:RDF>
<cc:Work rdf:about="">
<dc:format>image/svg+xml</dc:format>
<dc:type rdf:resource="http://purl.org/dc/dcmitype/StillImage"/>
<dc:title/>
</cc:Work>
</rdf:RDF>
</metadata>
<g transform="translate(2.9682 -254.09)">
<rect x="43" y="257" width="40" height="40" fill="#e7ded0"/>
<rect y="257" width="40" height="40" fill="#ffc4c1"/>
<rect x="86" y="257" width="40" height="40" fill="#e7ded0"/>
<rect x="129" y="257" width="40" height="40" fill="#e7ded0"/>
<rect x="172" y="257" width="40" height="40" fill="#c1eaff"/>
<rect x="215" y="257" width="40" height="40" fill="#e7ded0"/>
<rect x="258" y="257" width="40" height="40" fill="#e7ded0"/>
<path d="m8.9241 293.45 10.838-33.394 10.838 33.394l-28.414-20.652h35.152" fill="#444" stroke-width=".14647"/>
<g fill="#ffc4c1">
<path d="m39.967 278.65 0.01307 1.5 0.01337 1.5 1.4868-0.75982 1.4868-0.76005-1.4999-0.74019z"/>
<path d="m39.967 272.3 0.01307 1.5 0.01337 1.5 1.4868-0.75982 1.4868-0.76005-1.4999-0.74019z"/>
<g transform="rotate(90 19.88 276.87)">
<path d="m39.967 278.65 0.01307 1.5 0.01337 1.5 1.4868-0.75982 1.4868-0.76005-1.4999-0.74019z"/>
<path d="m39.967 272.3 0.01307 1.5 0.01337 1.5 1.4868-0.75982 1.4868-0.76005-1.4999-0.74019z"/>
</g>
<g transform="rotate(180 19.999 276.97)">
<path d="m39.967 278.65 0.01307 1.5 0.01337 1.5 1.4868-0.75982 1.4868-0.76005-1.4999-0.74019z"/>
<path d="m39.967 272.3 0.01307 1.5 0.01337 1.5 1.4868-0.75982 1.4868-0.76005-1.4999-0.74019z"/>
</g>
<g transform="rotate(-90 19.924 277.14)">
<path d="m39.967 278.65 0.01307 1.5 0.01337 1.5 1.4868-0.75982 1.4868-0.76005-1.4999-0.74019z"/>
<path d="m39.967 272.3 0.01307 1.5 0.01337 1.5 1.4868-0.75982 1.4868-0.76005-1.4999-0.74019z"/>
</g>
</g>
<g transform="translate(172)" fill="#c1eaff">
<path d="m39.967 278.65 0.01307 1.5 0.01337 1.5 1.4868-0.75982 1.4868-0.76005-1.4999-0.74019z"/>
<path d="m39.967 272.3 0.01307 1.5 0.01337 1.5 1.4868-0.75982 1.4868-0.76005-1.4999-0.74019z"/>
<g transform="rotate(90 19.88 276.87)">
<path d="m39.967 278.65 0.01307 1.5 0.01337 1.5 1.4868-0.75982 1.4868-0.76005-1.4999-0.74019z"/>
<path d="m39.967 272.3 0.01307 1.5 0.01337 1.5 1.4868-0.75982 1.4868-0.76005-1.4999-0.74019z"/>
</g>
<g transform="rotate(180 19.999 276.97)">
<path d="m39.967 278.65 0.01307 1.5 0.01337 1.5 1.4868-0.75982 1.4868-0.76005-1.4999-0.74019z"/>
<path d="m39.967 272.3 0.01307 1.5 0.01337 1.5 1.4868-0.75982 1.4868-0.76005-1.4999-0.74019z"/>
</g>
<g transform="rotate(-90 19.924 277.14)">
<path d="m39.967 278.65 0.01307 1.5 0.01337 1.5 1.4868-0.75982 1.4868-0.76005-1.4999-0.74019z"/>
<path d="m39.967 272.3 0.01307 1.5 0.01337 1.5 1.4868-0.75982 1.4868-0.76005-1.4999-0.74019z"/>
</g>
</g>
<text x="191.83774" y="270.75586" fill="#444444" font-family="Roboto" font-size="6.6108px" letter-spacing="0px" stroke-width=".1699" text-align="center" text-anchor="middle" word-spacing="0px" style="font-feature-settings:normal;font-variant-caps:normal;font-variant-ligatures:normal;font-variant-numeric:normal;line-height:1.25" xml:space="preserve"><tspan x="191.83774" y="270.75586" text-align="center" style="font-feature-settings:normal;font-variant-caps:normal;font-variant-ligatures:normal;font-variant-numeric:normal;line-height:1.29999995">DOUBLE</tspan><tspan x="191.83774" y="279.34995" text-align="center" style="font-feature-settings:normal;font-variant-caps:normal;font-variant-ligatures:normal;font-variant-numeric:normal;line-height:1.29999995">LETTER</tspan><tspan x="191.83774" y="287.94406" text-align="center" style="font-feature-settings:normal;font-variant-caps:normal;font-variant-ligatures:normal;font-variant-numeric:normal;line-height:1.29999995">SCORE</tspan></text>
</g>
</svg>
